<svg width="25" height="25" viewBox="0 0 25 25" fill="none" xmlns="http://www.w3.org/2000/svg">
<path d="M12.1481 23.2857C10.0853 23.2867 8.06281 22.7151 6.30574 21.6345C4.54866 20.5539 3.12602 19.0069 2.19622 17.1656C1.26643 15.3243 0.865988 13.261 1.03949 11.2056C1.213 9.15015 1.95364 7.18323 3.17894 5.52384C4.40424 3.86446 6.0661 2.57776 7.97944 1.80704C9.89279 1.03632 11.9825 0.811822 14.0159 1.15856C16.0493 1.50529 17.9465 2.40964 19.4963 3.7709C21.0461 5.13216 22.1877 6.8969 22.7938 8.86858M23.2909 12.1429V13" stroke="#582891" stroke-width="2" stroke-linecap="round" stroke-linejoin="round"/>
<path d="M22.1481 16.1428C21.5939 17.8188 20.5343 19.2317 19.1481 20.1428" stroke="#582891" stroke-width="2" stroke-linecap="round" stroke-linejoin="round"/>
<path d="M16.4853 22.4286L15.6796 22.7371" stroke="#582891" stroke-width="2" stroke-linecap="round" stroke-linejoin="round"/>
</svg>
