<svg width="51" height="50" viewBox="0 0 51 50" fill="none" xmlns="http://www.w3.org/2000/svg">
<circle cx="25.5" cy="25" r="25" fill="white"/>
<path fill-rule="evenodd" clip-rule="evenodd" d="M35.046 18.1111C35.3272 18.3924 35.4852 18.7738 35.4852 19.1716C35.4852 19.5693 35.3272 19.9508 35.046 20.2321L23.803 31.4751C23.6544 31.6237 23.478 31.7416 23.2839 31.822C23.0898 31.9024 22.8817 31.9438 22.6715 31.9438C22.4614 31.9438 22.2533 31.9024 22.0591 31.822C21.865 31.7416 21.6886 31.6237 21.54 31.4751L15.954 25.8901C15.8108 25.7517 15.6965 25.5862 15.6179 25.4032C15.5393 25.2202 15.4979 25.0233 15.4962 24.8242C15.4944 24.625 15.5324 24.4275 15.6078 24.2431C15.6832 24.0588 15.7946 23.8913 15.9354 23.7505C16.0763 23.6096 16.2438 23.4983 16.4281 23.4228C16.6124 23.3474 16.81 23.3095 17.0091 23.3112C17.2083 23.3129 17.4051 23.3543 17.5881 23.4329C17.7711 23.5115 17.9367 23.6258 18.075 23.7691L22.671 28.3651L32.924 18.1111C33.0633 17.9717 33.2287 17.8611 33.4108 17.7857C33.5928 17.7102 33.788 17.6714 33.985 17.6714C34.1821 17.6714 34.3772 17.7102 34.5593 17.7857C34.7413 17.8611 34.9067 17.9717 35.046 18.1111Z" fill="#582891"/>
</svg>
