<svg width="50" height="50" viewBox="0 0 50 50" fill="none" xmlns="http://www.w3.org/2000/svg">
<circle cx="25" cy="25" r="25" fill="#582891"/>
<path fill-rule="evenodd" clip-rule="evenodd" d="M34.546 18.111C34.8272 18.3923 34.9852 18.7738 34.9852 19.1715C34.9852 19.5693 34.8272 19.9507 34.546 20.232L23.303 31.475C23.1544 31.6236 22.978 31.7415 22.7839 31.8219C22.5898 31.9024 22.3817 31.9438 22.1715 31.9438C21.9614 31.9438 21.7533 31.9024 21.5591 31.8219C21.365 31.7415 21.1886 31.6236 21.04 31.475L15.454 25.89C15.3108 25.7516 15.1965 25.5861 15.1179 25.4031C15.0393 25.2201 14.9979 25.0233 14.9962 24.8241C14.9944 24.6249 15.0324 24.4274 15.1078 24.2431C15.1832 24.0587 15.2946 23.8913 15.4354 23.7504C15.5763 23.6096 15.7438 23.4982 15.9281 23.4228C16.1124 23.3474 16.31 23.3094 16.5091 23.3111C16.7083 23.3129 16.9051 23.3542 17.0881 23.4329C17.2711 23.5115 17.4367 23.6257 17.575 23.769L22.171 28.365L32.424 18.111C32.5633 17.9716 32.7287 17.861 32.9108 17.7856C33.0928 17.7102 33.288 17.6713 33.485 17.6713C33.6821 17.6713 33.8772 17.7102 34.0593 17.7856C34.2413 17.861 34.4067 17.9716 34.546 18.111Z" fill="white"/>
</svg>
