<svg width="50" height="50" viewBox="0 0 50 50" fill="none" xmlns="http://www.w3.org/2000/svg">
<circle cx="25" cy="25" r="24" fill="white" stroke="#582891" stroke-width="2"/>
<path d="M25.1481 36.2857C23.0853 36.2867 21.0628 35.7151 19.3057 34.6345C17.5487 33.5539 16.126 32.0069 15.1962 30.1656C14.2664 28.3243 13.866 26.261 14.0395 24.2056C14.213 22.1502 14.9536 20.1832 16.1789 18.5238C17.4042 16.8645 19.0661 15.5778 20.9794 14.807C22.8928 14.0363 24.9825 13.8118 27.0159 14.1586C29.0493 14.5053 30.9465 15.4096 32.4963 16.7709C34.0461 18.1322 35.1877 19.8969 35.7938 21.8686M36.2909 25.1429V26" stroke="#582891" stroke-width="2" stroke-linecap="round" stroke-linejoin="round"/>
<path d="M35.1481 29.1428C34.5939 30.8188 33.5343 32.2317 32.1481 33.1428" stroke="#582891" stroke-width="2" stroke-linecap="round" stroke-linejoin="round"/>
<path d="M29.4853 35.4286L28.6796 35.7371" stroke="#582891" stroke-width="2" stroke-linecap="round" stroke-linejoin="round"/>
</svg>
